<svg width="89" height="89" viewBox="0 0 89 89" fill="none" xmlns="http://www.w3.org/2000/svg">
<g clip-path="url(#clip0_309_403)">
<mask id="mask0_309_403" style="mask-type:luminance" maskUnits="userSpaceOnUse" x="0" y="0" width="89" height="89">
<path d="M88.9814 0H0V88.9814H88.9814V0Z" fill="white"/>
</mask>
<g mask="url(#mask0_309_403)">
<path d="M77.8586 84.3465H11.1225C9.60237 84.3465 8.3418 83.0859 8.3418 81.5658C8.3418 80.0457 9.60237 78.7852 11.1225 78.7852H77.8586C79.3787 78.7852 80.6392 80.0457 80.6392 81.5658C80.6392 83.0859 79.3787 84.3465 77.8586 84.3465Z" fill="#44E4D1"/>
<path d="M20.7627 31.0723H14.8306C12.7914 31.0723 11.123 32.7407 11.123 34.7798V66.7391C11.123 68.7783 12.7914 70.4467 14.8306 70.4467H20.7627C22.8019 70.4467 24.4703 68.7783 24.4703 66.7391V34.7798C24.4703 32.7036 22.8019 31.0723 20.7627 31.0723Z" fill="#44E4D1"/>
<path d="M47.4561 19.2402H41.524C39.4848 19.2402 37.8164 20.9086 37.8164 22.9478V66.7343C37.8164 68.7734 39.4848 70.4418 41.524 70.4418H47.4561C49.4952 70.4418 51.1636 68.7734 51.1636 66.7343V22.9478C51.1636 20.9086 49.4952 19.2402 47.4561 19.2402Z" fill="#00CAC0"/>
<path d="M74.1514 7.41504H68.2193C66.1801 7.41504 64.5117 9.08344 64.5117 11.1226V66.736C64.5117 68.7752 66.1801 70.4436 68.2193 70.4436H74.1514C76.1905 70.4436 77.8589 68.7752 77.8589 66.736V11.1226C77.8589 9.08344 76.1905 7.41504 74.1514 7.41504Z" fill="#44E4D1"/>
</g>
</g>
<defs>
<clipPath id="clip0_309_403">
<rect width="88.9814" height="88.9814" fill="white"/>
</clipPath>
</defs>
</svg>
