<svg width="85" height="85" viewBox="0 0 85 85" fill="none" xmlns="http://www.w3.org/2000/svg">
<mask id="mask0_309_393" style="mask-type:luminance" maskUnits="userSpaceOnUse" x="0" y="0" width="85" height="85">
<path d="M84.3736 0H0V84.3736H84.3736V0Z" fill="white"/>
</mask>
<g mask="url(#mask0_309_393)">
<path d="M42.1875 65.9169C40.7461 65.9169 39.5508 64.7216 39.5508 63.2802V59.7646C39.5508 58.3232 40.7461 57.1279 42.1875 57.1279C43.6288 57.1279 44.8241 58.3232 44.8241 59.7646V63.2802C44.8241 64.7216 43.6288 65.9169 42.1875 65.9169Z" fill="#00CAC0"/>
<path d="M42.1875 79.9794C40.7461 79.9794 39.5508 78.7841 39.5508 77.3427V73.8271C39.5508 72.3857 40.7461 71.1904 42.1875 71.1904C43.6288 71.1904 44.8241 72.3857 44.8241 73.8271V77.3427C44.8241 78.7841 43.6288 79.9794 42.1875 79.9794Z" fill="#00CAC0"/>
<path d="M7.03256 79.9805C6.82162 79.9805 6.61069 79.9454 6.39976 79.9102C4.99353 79.5587 4.11464 78.1173 4.46619 76.7111L7.98176 62.6488C8.33332 61.2426 9.73955 60.3637 11.1809 60.7152C12.5872 61.0668 13.466 62.5082 13.1145 63.9144L9.59892 77.9767C9.28252 79.1719 8.22785 79.9805 7.03256 79.9805Z" fill="#44E4D1"/>
<path d="M76.474 79.1105C75.2787 79.1105 74.224 78.3019 73.9076 77.1066L70.3921 63.0444C70.0405 61.6381 70.8842 60.1967 72.3256 59.8452C73.7319 59.4936 75.1732 60.3374 75.5248 61.7787L79.0404 75.841C79.3919 77.2472 78.5482 78.6886 77.1068 79.0402C76.8959 79.0753 76.6849 79.1105 76.474 79.1105Z" fill="#44E4D1"/>
<path d="M67.2903 18.6326C67.2903 19.6872 66.4114 20.531 65.3918 20.531H19.4433C18.3887 20.531 17.5449 19.6521 17.5449 18.6326C17.5449 17.5779 18.4238 16.7342 19.4433 16.7342H22.0448L23.0292 12.1288C23.9433 7.62884 25.8417 3.51562 33.4353 3.51562H51.3296C58.9232 3.51562 60.8568 7.62884 61.7708 12.0936L62.7552 16.699H65.3567C66.4114 16.699 67.2903 17.5779 67.2903 18.6326Z" fill="#44E4D1"/>
<path d="M68.3795 33.0448C67.9928 28.8261 66.8678 24.3613 58.6765 24.3613H26.1224C17.9311 24.3613 16.8413 28.8613 16.4194 33.0448L14.978 48.5836C14.8022 50.5172 15.435 52.4508 16.771 53.9273C18.142 55.4038 20.0404 56.2476 22.0795 56.2476H26.8606C31.009 56.2476 31.7824 53.8921 32.3098 52.3101L32.8371 50.7633C33.4348 49.0055 33.5754 48.5836 35.8605 48.5836H48.9384C51.2235 48.5836 51.2938 48.8297 51.9618 50.7633L52.4891 52.3101C52.9813 53.8921 53.7899 56.2476 57.9031 56.2476H62.6843C64.6882 56.2476 66.6217 55.4038 67.9928 53.9273C69.3287 52.4859 69.9615 50.5172 69.7857 48.5836L68.3795 33.0448ZM34.7355 38.3885H27.1067C26.0521 38.3885 25.2083 37.5096 25.2083 36.4901C25.2083 35.4706 26.0872 34.5916 27.1067 34.5916H34.7707C35.8253 34.5916 36.6691 35.4706 36.6691 36.4901C36.6691 37.5096 35.7902 38.3885 34.7355 38.3885ZM57.6922 38.3885H50.0282C48.9736 38.3885 48.1298 37.5096 48.1298 36.4901C48.1298 35.4706 49.0087 34.5916 50.0282 34.5916H57.6922C58.7469 34.5916 59.5906 35.4706 59.5906 36.4901C59.5906 37.5096 58.7469 38.3885 57.6922 38.3885Z" fill="#44E4D1"/>
</g>
</svg>
