<svg width="91" height="91" viewBox="0 0 91 91" fill="none" xmlns="http://www.w3.org/2000/svg">
<g clip-path="url(#clip0_309_385)">
<mask id="mask0_309_385" style="mask-type:luminance" maskUnits="userSpaceOnUse" x="0" y="0" width="91" height="91">
<path d="M90.5859 0H0V90.5859H90.5859V0Z" fill="white"/>
</mask>
<g mask="url(#mask0_309_385)">
<path d="M40.0088 15.6638C40.0088 16.3809 39.4049 16.9849 38.6877 16.9849H34.4226C26.2699 16.9849 19.6269 23.6278 19.6269 31.7805V66.6184C19.6269 67.3355 19.023 67.9394 18.3059 67.9394H15.6638C11.1723 67.9394 7.54883 64.316 7.54883 59.8244V15.6638C7.54883 11.1723 11.1723 7.54883 15.6638 7.54883H31.8938C36.3853 7.54883 40.0088 11.1723 40.0088 15.6638Z" fill="#00CAC0"/>
<path d="M83.0361 15.6638V59.8244C83.0361 64.316 79.4127 67.9394 74.9211 67.9394H72.5432C71.8261 67.9394 71.2222 67.3355 71.2222 66.6184V31.7805C71.2222 23.6278 64.5792 16.9849 56.4265 16.9849H51.8972C51.1801 16.9849 50.5762 16.3809 50.5762 15.6638C50.5762 11.1723 54.1996 7.54883 58.6912 7.54883H74.9211C79.4127 7.54883 83.0361 11.1723 83.0361 15.6638Z" fill="#00CAC0"/>
<path d="M56.4281 22.6465H34.4231C29.3654 22.6465 25.2891 26.7228 25.2891 31.7806V73.903C25.2891 78.9607 29.3654 83.0371 34.4231 83.0371H40.5756C41.6325 83.0371 42.4628 82.2067 42.4628 81.1498V71.7138C42.4628 70.1663 43.7461 68.883 45.2936 68.883C46.8411 68.883 48.1244 70.1663 48.1244 71.7138V81.1498C48.1244 82.2067 48.9548 83.0371 50.0116 83.0371H56.4659C61.4859 83.0371 65.5622 78.9607 65.5622 73.9407V31.7806C65.5622 26.7228 61.4859 22.6465 56.4281 22.6465ZM52.8425 55.6726H37.7446C36.1971 55.6726 34.9138 54.3893 34.9138 52.8418C34.9138 51.2943 36.1971 50.011 37.7446 50.011H52.8425C54.39 50.011 55.6733 51.2943 55.6733 52.8418C55.6733 54.3893 54.39 55.6726 52.8425 55.6726ZM52.8425 44.3493H37.7446C36.1971 44.3493 34.9138 43.066 34.9138 41.5185C34.9138 39.971 36.1971 38.6877 37.7446 38.6877H52.8425C54.39 38.6877 55.6733 39.971 55.6733 41.5185C55.6733 43.066 54.39 44.3493 52.8425 44.3493Z" fill="#44E4D1"/>
</g>
</g>
<defs>
<clipPath id="clip0_309_385">
<rect width="90.5859" height="90.5859" fill="white"/>
</clipPath>
</defs>
</svg>
