<svg width="101" height="101" viewBox="0 0 101 101" fill="none" xmlns="http://www.w3.org/2000/svg">
<g clip-path="url(#clip0_309_413)">
<mask id="mask0_309_413" style="mask-type:luminance" maskUnits="userSpaceOnUse" x="0" y="0" width="101" height="101">
<path d="M100.841 0H0V100.841H100.841V0Z" fill="white"/>
</mask>
<g mask="url(#mask0_309_413)">
<path d="M56.381 30.8576L66.3579 25.9502C67.5746 25.3419 67.8991 23.7602 66.9663 22.7868C63.3567 18.8123 59.7066 15.4866 56.7866 12.9721C55.4482 11.8366 53.4609 12.7694 53.4609 14.5133V29.0325C53.4609 30.5331 55.0426 31.5065 56.381 30.8576Z" fill="#44E4D1"/>
<path d="M53.4609 80.8667V87.5581C53.4609 88.7752 54.556 89.7892 55.7727 89.586C66.8446 87.7613 76.0915 80.3391 80.4716 70.3622C81.2422 68.6588 79.3766 66.9558 77.6732 67.767L54.5965 79.0818C53.9071 79.4063 53.4609 80.0957 53.4609 80.8667Z" fill="#44E4D1"/>
<path d="M47.3778 14.4325C47.3778 12.6886 45.3906 11.7558 44.0522 12.8508C34.4807 20.881 17.4875 37.7931 17.5686 57.179C17.5686 73.4827 29.4923 86.988 45.0661 89.5836C46.2828 89.7864 47.3778 88.7725 47.3778 87.5558V14.4325Z" fill="#00CAC0"/>
<path d="M56.2608 51.3783L77.7152 42.3748C78.8103 41.8881 79.3375 40.6307 78.8103 39.5762C77.3097 36.6156 75.5657 33.7361 73.6596 31.0593C73.0918 30.2482 72.0373 30.0049 71.1451 30.4104L54.5575 38.4812C53.868 38.8056 53.4219 39.5357 53.4219 40.3062V49.5127C53.4624 50.9322 54.9225 51.9461 56.2608 51.3783Z" fill="#44E4D1"/>
<path d="M82.175 58.8465C82.8239 58.522 83.2294 57.9137 83.2294 57.2242C83.2294 54.6286 82.905 52.0735 82.3372 49.559C82.0533 48.3423 80.7149 47.6934 79.5793 48.1801L54.6776 58.8059C53.9476 59.1304 53.4609 59.8604 53.4609 60.6715V69.5939C53.4609 71.0945 55.0426 72.0679 56.381 71.419L80.3094 59.7793L82.175 58.8465Z" fill="#44E4D1"/>
</g>
</g>
<defs>
<clipPath id="clip0_309_413">
<rect width="100.841" height="100.841" fill="white"/>
</clipPath>
</defs>
</svg>
