<svg width="23" height="23" viewBox="0 0 23 23" fill="none" xmlns="http://www.w3.org/2000/svg">
<circle cx="11.5" cy="11.5" r="11.5" fill="#00CAC0"/>
<g clip-path="url(#clip0_463_246)">
<mask id="mask0_463_246" style="mask-type:luminance" maskUnits="userSpaceOnUse" x="4" y="4" width="15" height="15">
<path d="M18.4 4H4V18.4H18.4V4Z" fill="white"/>
</mask>
<g mask="url(#mask0_463_246)">
<path d="M10.63 12.9702L9.51995 14.0802C9.28595 14.3142 8.91395 14.3142 8.67395 14.0862C8.60795 14.0202 8.54195 13.9602 8.47595 13.8942C7.85795 13.2702 7.29995 12.6162 6.80195 11.9322C6.30995 11.2482 5.91395 10.5642 5.62595 9.8862C5.34395 9.2022 5.19995 8.5482 5.19995 7.9242C5.19995 7.5162 5.27195 7.1262 5.41595 6.7662C5.55995 6.4002 5.78795 6.0642 6.10595 5.7642C6.48995 5.3862 6.90995 5.2002 7.35395 5.2002C7.52195 5.2002 7.68995 5.2362 7.83995 5.3082C7.99595 5.3802 8.13395 5.4882 8.24195 5.6442L9.63395 7.6062C9.74195 7.7562 9.81995 7.8942 9.87395 8.0262C9.92795 8.1522 9.95795 8.2782 9.95795 8.3922C9.95795 8.5362 9.91595 8.6802 9.83195 8.8182C9.75395 8.9562 9.63995 9.1002 9.49595 9.2442L9.03995 9.7182C8.97395 9.7842 8.94395 9.8622 8.94395 9.9582C8.94395 10.0062 8.94995 10.0482 8.96195 10.0962C8.97995 10.1442 8.99795 10.1802 9.00995 10.2162C9.11795 10.4142 9.30395 10.6722 9.56795 10.9842C9.83795 11.2962 10.126 11.6142 10.438 11.9322C10.498 11.9922 10.564 12.0522 10.624 12.1122C10.864 12.3462 10.87 12.7302 10.63 12.9702Z" fill="white"/>
<path d="M17.182 14.9978C17.182 15.1658 17.152 15.3398 17.092 15.5078C17.074 15.5558 17.056 15.6038 17.032 15.6518C16.93 15.8678 16.798 16.0718 16.624 16.2638C16.33 16.5878 16.006 16.8218 15.64 16.9718C15.634 16.9718 15.628 16.9778 15.622 16.9778C15.268 17.1218 14.884 17.1998 14.47 17.1998C13.858 17.1998 13.204 17.0558 12.514 16.7618C11.824 16.4678 11.134 16.0718 10.45 15.5738C10.216 15.3998 9.98201 15.2258 9.76001 15.0398L11.722 13.0778C11.89 13.2038 12.04 13.2998 12.166 13.3658C12.196 13.3778 12.232 13.3958 12.274 13.4138C12.322 13.4318 12.37 13.4378 12.424 13.4378C12.526 13.4378 12.604 13.4018 12.67 13.3358L13.126 12.8858C13.276 12.7358 13.42 12.6218 13.558 12.5498C13.696 12.4658 13.834 12.4238 13.984 12.4238C14.098 12.4238 14.218 12.4478 14.35 12.5018C14.482 12.5558 14.62 12.6338 14.77 12.7358L16.756 14.1458C16.912 14.2538 17.02 14.3798 17.086 14.5298C17.146 14.6798 17.182 14.8298 17.182 14.9978Z" fill="white"/>
</g>
</g>
<defs>
<clipPath id="clip0_463_246">
<rect width="14.4" height="14.4" fill="white" transform="translate(4 4)"/>
</clipPath>
</defs>
</svg>
