<svg width="23" height="23" viewBox="0 0 23 23" fill="none" xmlns="http://www.w3.org/2000/svg">
<circle cx="11.5" cy="11.5" r="11.5" fill="#00CAC0"/>
<g clip-path="url(#clip0_463_258)">
<mask id="mask0_463_258" style="mask-type:luminance" maskUnits="userSpaceOnUse" x="4" y="4" width="15" height="15">
<path d="M18.4 4H4V18.4H18.4V4Z" fill="white"/>
</mask>
<g mask="url(#mask0_463_258)">
<path d="M17.2 16.75H5.2C4.954 16.75 4.75 16.954 4.75 17.2C4.75 17.446 4.954 17.65 5.2 17.65H17.2C17.446 17.65 17.65 17.446 17.65 17.2C17.65 16.954 17.446 16.75 17.2 16.75Z" fill="white"/>
<path d="M14.2 5.2002H8.20005C6.40005 5.2002 5.80005 6.2742 5.80005 7.6002V17.2002H16.6V7.6002C16.6 6.2742 16 5.2002 14.2 5.2002ZM10 14.3502H8.20005C7.95405 14.3502 7.75005 14.1462 7.75005 13.9002C7.75005 13.6542 7.95405 13.4502 8.20005 13.4502H10C10.246 13.4502 10.45 13.6542 10.45 13.9002C10.45 14.1462 10.246 14.3502 10 14.3502ZM10 11.6502H8.20005C7.95405 11.6502 7.75005 11.4462 7.75005 11.2002C7.75005 10.9542 7.95405 10.7502 8.20005 10.7502H10C10.246 10.7502 10.45 10.9542 10.45 11.2002C10.45 11.4462 10.246 11.6502 10 11.6502ZM10 8.9502H8.20005C7.95405 8.9502 7.75005 8.7462 7.75005 8.5002C7.75005 8.2542 7.95405 8.0502 8.20005 8.0502H10C10.246 8.0502 10.45 8.2542 10.45 8.5002C10.45 8.7462 10.246 8.9502 10 8.9502ZM14.2 14.3502H12.4C12.154 14.3502 11.95 14.1462 11.95 13.9002C11.95 13.6542 12.154 13.4502 12.4 13.4502H14.2C14.446 13.4502 14.65 13.6542 14.65 13.9002C14.65 14.1462 14.446 14.3502 14.2 14.3502ZM14.2 11.6502H12.4C12.154 11.6502 11.95 11.4462 11.95 11.2002C11.95 10.9542 12.154 10.7502 12.4 10.7502H14.2C14.446 10.7502 14.65 10.9542 14.65 11.2002C14.65 11.4462 14.446 11.6502 14.2 11.6502ZM14.2 8.9502H12.4C12.154 8.9502 11.95 8.7462 11.95 8.5002C11.95 8.2542 12.154 8.0502 12.4 8.0502H14.2C14.446 8.0502 14.65 8.2542 14.65 8.5002C14.65 8.7462 14.446 8.9502 14.2 8.9502Z" fill="white"/>
</g>
</g>
<defs>
<clipPath id="clip0_463_258">
<rect width="14.4" height="14.4" fill="white" transform="translate(4 4)"/>
</clipPath>
</defs>
</svg>
