<svg width="22" height="22" viewBox="0 0 22 22" fill="none" xmlns="http://www.w3.org/2000/svg">
<path d="M12.0998 3.3002C12.0998 2.69176 11.6082 2.2002 10.9998 2.2002C10.3914 2.2002 9.89981 2.69176 9.89981 3.3002V10.543L8.47668 9.11988C8.04699 8.6902 7.34918 8.6902 6.91949 9.11988C6.4898 9.54957 6.4898 10.2474 6.91949 10.6771L10.2195 13.9771C10.6492 14.4068 11.347 14.4068 11.7767 13.9771L15.0767 10.6771C15.5064 10.2474 15.5064 9.54957 15.0767 9.11988C14.647 8.6902 13.9492 8.6902 13.5195 9.11988L12.0998 10.543V3.3002ZM5.4998 13.2002C4.28637 13.2002 3.2998 14.1868 3.2998 15.4002V16.5002C3.2998 17.7136 4.28637 18.7002 5.4998 18.7002H16.4998C17.7132 18.7002 18.6998 17.7136 18.6998 16.5002V15.4002C18.6998 14.1868 17.7132 13.2002 16.4998 13.2002H14.8876L12.942 15.1458C11.8695 16.2183 10.1267 16.2183 9.05418 15.1458L7.11199 13.2002H5.4998ZM15.9498 15.1252C16.407 15.1252 16.7748 15.493 16.7748 15.9502C16.7748 16.4074 16.407 16.7752 15.9498 16.7752C15.4926 16.7752 15.1248 16.4074 15.1248 15.9502C15.1248 15.493 15.4926 15.1252 15.9498 15.1252Z" fill="#00CAC0"/>
</svg>
