<svg width="23" height="23" viewBox="0 0 23 23" fill="none" xmlns="http://www.w3.org/2000/svg">
<circle cx="11.5" cy="11.5" r="11.5" fill="#00CAC0"/>
<g clip-path="url(#clip0_463_359)">
<mask id="mask0_463_359" style="mask-type:luminance" maskUnits="userSpaceOnUse" x="4" y="4" width="15" height="15">
<path d="M18.4 4H4V18.4H18.4V4Z" fill="white"/>
</mask>
<g mask="url(#mask0_463_359)">
<path d="M14.8 14.0508C14.704 14.0508 14.614 14.0208 14.53 13.9608C14.332 13.8108 14.29 13.5288 14.44 13.3308C15.382 12.0768 15.382 10.3248 14.44 9.07075C14.29 8.87275 14.332 8.59075 14.53 8.44075C14.728 8.29075 15.01 8.33275 15.16 8.53075C16.336 10.1028 16.336 12.2988 15.16 13.8708C15.07 13.9908 14.938 14.0508 14.8 14.0508Z" fill="white"/>
<path d="M15.8979 15.5508C15.8019 15.5508 15.7119 15.5208 15.6279 15.4608C15.4299 15.3108 15.3879 15.0288 15.5379 14.8308C17.1399 12.6948 17.1399 9.70675 15.5379 7.57075C15.3879 7.37275 15.4299 7.09075 15.6279 6.94075C15.8259 6.79075 16.1079 6.83275 16.2579 7.03075C18.0999 9.48475 18.0999 12.9168 16.2579 15.3708C16.1739 15.4908 16.0359 15.5508 15.8979 15.5508Z" fill="white"/>
<path d="M12.412 6.26783C11.74 5.89583 10.882 5.99183 10.006 6.53783L8.254 7.63583C8.134 7.70783 7.996 7.74983 7.858 7.74983H7.3H7C5.548 7.74983 4.75 8.54783 4.75 9.99983V12.3998C4.75 13.8518 5.548 14.6498 7 14.6498H7.3H7.858C7.996 14.6498 8.134 14.6918 8.254 14.7638L10.006 15.8618C10.534 16.1918 11.05 16.3538 11.53 16.3538C11.842 16.3538 12.142 16.2818 12.412 16.1318C13.078 15.7598 13.45 14.9858 13.45 13.9538V8.44583C13.45 7.41383 13.078 6.63983 12.412 6.26783Z" fill="white"/>
</g>
</g>
<circle cx="11.5" cy="11.5" r="11.5" fill="#00CAC0"/>
<path d="M12.0523 4.21711C11.74 3.92763 11.2575 3.92763 10.9477 4.21711L5.25916 9.49888C5.01537 9.72741 4.93411 10.0804 5.056 10.3902C5.1779 10.7 5.47502 10.9057 5.81024 10.9057H6.21656V15.3748C6.21656 16.2712 6.9454 17 7.84184 17H15.1556C16.0521 17 16.7809 16.2712 16.7809 15.3748V10.9057H17.1872C17.5224 10.9057 17.8221 10.7 17.944 10.3902C18.0659 10.0804 17.9846 9.72488 17.7408 9.49888L12.0523 4.21711ZM11.0924 12.1245H11.9051C12.578 12.1245 13.124 12.6705 13.124 13.3434V15.7811H9.87345V13.3434C9.87345 12.6705 10.4194 12.1245 11.0924 12.1245Z" fill="white"/>
<defs>
<clipPath id="clip0_463_359">
<rect width="14.4" height="14.4" fill="white" transform="translate(4 4)"/>
</clipPath>
</defs>
</svg>
