<svg width="118" height="123" viewBox="0 0 118 123" fill="none" xmlns="http://www.w3.org/2000/svg">
<path d="M33.7237 77.3314L21.8059 80.268L20.2914 80.6408L21.2626 81.8608L21.2631 81.8621C21.2638 81.8629 21.2649 81.8646 21.2665 81.8666C21.2698 81.8709 21.2753 81.8778 21.2824 81.8869C21.297 81.9054 21.3198 81.9336 21.3491 81.9714C21.4076 82.0469 21.4946 82.1604 21.6055 82.3081C21.8273 82.6035 22.145 83.036 22.5239 83.5793C23.2831 84.6677 24.2842 86.1943 25.2526 87.9479C26.2226 89.7044 27.1492 91.6691 27.7722 93.636C28.3978 95.6113 28.6971 97.5273 28.4757 99.2105L28.3049 100.504L29.5982 100.332L33.8186 99.7708L35.8106 100.735L36.2665 100.956L36.7137 100.719L38.6346 99.7024L39.456 99.2663L39.0817 98.4153L33.5431 85.8326C33.1289 84.8916 33.087 83.8283 33.427 82.8577L34.9075 78.6325L35.5181 76.889L33.7237 77.3314Z" fill="#D9DBE8" stroke="white" stroke-width="2"/>
<path d="M78.456 56.5483C76.5862 48.9613 73.5679 42.37 70.1593 37.8487C68.4562 35.5896 66.625 33.8065 64.752 32.689C62.8738 31.5686 60.8889 31.0834 58.9578 31.5593C57.027 32.0352 55.4955 33.3872 54.3531 35.2518C53.2138 37.1116 52.421 39.5415 51.9626 42.3333C51.0452 47.9207 51.4354 55.1596 53.3052 62.7467C55.1751 70.3336 58.1933 76.925 61.6019 81.4462C63.305 83.7051 65.1361 85.4876 67.0091 86.6049C68.8871 87.7252 70.8713 88.2107 72.8023 87.7349C74.7334 87.259 76.2654 85.9071 77.4079 84.0422C78.5472 82.1824 79.3403 79.7533 79.7987 76.9616C80.716 71.3742 80.3258 64.1353 78.456 56.5483Z" fill="#ECEDF9" stroke="white" stroke-width="2"/>
<mask id="mask0_942_1707" style="mask-type:luminance" maskUnits="userSpaceOnUse" x="50" y="30" width="32" height="59">
<path d="M78.455 56.548C76.5852 48.9611 73.5669 42.3698 70.1583 37.8485C68.4552 35.5894 66.624 33.8062 64.751 32.6888C62.8728 31.5684 60.8879 31.0831 58.9568 31.559C57.026 32.035 55.4945 33.387 54.3522 35.2516C53.2128 37.1114 52.42 39.5412 51.9616 42.333C51.0443 47.9205 51.4344 55.1594 53.3043 62.7464C55.1741 70.3334 58.1923 76.9247 61.6009 81.446C63.304 83.7049 65.1351 85.4873 67.0081 86.6047C68.8861 87.725 70.8703 88.2105 72.8013 87.7347C74.7324 87.2587 76.2645 85.9068 77.4069 84.0419C78.5462 82.1821 79.3393 79.7531 79.7977 76.9614C80.7151 71.374 80.3248 64.135 78.455 56.548Z" fill="white" stroke="white" stroke-width="2"/>
</mask>
<g mask="url(#mask0_942_1707)">
<path d="M60.03 25.8496C55.9607 24.0338 51.6258 23.7861 47.5693 26.5766C43.5199 29.3626 41.9473 33.8106 41.768 38.6917C41.5892 43.5603 42.7836 49.001 44.4161 54.042C46.0529 59.0963 48.153 63.8192 49.8402 67.2724C50.6847 69.0007 51.4286 70.4147 51.9612 71.3984C52.2275 71.8902 52.441 72.2748 52.5888 72.5373C52.6627 72.6685 52.7205 72.7694 52.7598 72.8378C52.7794 72.872 52.7942 72.8986 52.8045 72.9164C52.8096 72.9252 52.8134 72.9323 52.8161 72.937C52.8173 72.939 52.8188 72.9403 52.8195 72.9416L52.8206 72.9441C52.8216 72.9441 52.8477 72.9288 53.6844 72.441L52.8215 72.9445L54.1413 75.2087L54.6646 72.6405C57.3537 59.4519 64.1229 54.3355 70.0869 52.4168C73.1085 51.4447 75.9758 51.2778 78.0942 51.3571C79.1512 51.3967 80.0155 51.4971 80.6111 51.5868C80.9087 51.6317 81.1388 51.674 81.2915 51.7041C81.3676 51.7192 81.4245 51.731 81.4609 51.739C81.4788 51.7429 81.4918 51.7457 81.4996 51.7475C81.5032 51.7483 81.5059 51.7493 81.5072 51.7496L81.5076 51.7487L83.7301 52.2807L82.6114 50.2873L82.61 50.2856C82.6093 50.2844 82.6082 50.2824 82.6069 50.2801C82.6044 50.2756 82.6011 50.2685 82.5963 50.2599C82.5865 50.2427 82.5718 50.2178 82.5531 50.1851C82.5158 50.1197 82.4606 50.0238 82.3885 49.8999C82.2443 49.6519 82.0319 49.2915 81.7569 48.8375C81.2069 47.9295 80.4061 46.646 79.3989 45.1388C77.3869 42.1284 74.5398 38.2072 71.2157 34.598C67.9041 31.0026 64.0564 27.6462 60.03 25.8496Z" fill="#D9DBE8" stroke="white" stroke-width="2"/>
</g>
<path d="M31.6799 78.0641L19.7612 81.0004L18.2464 81.3741L19.2185 82.5944L19.2194 82.5948C19.2201 82.5957 19.2212 82.5973 19.2228 82.5994C19.2261 82.6037 19.2315 82.6105 19.2387 82.6197C19.2532 82.6382 19.2749 82.6669 19.3041 82.7046C19.3626 82.7802 19.4496 82.8937 19.5605 83.0414C19.7824 83.3368 20.1008 83.7695 20.4798 84.3129C21.2389 85.4014 22.2393 86.9277 23.2076 88.6812C24.1776 90.4377 25.1042 92.4024 25.7272 94.3693C26.3527 96.3444 26.6523 98.2598 26.4311 99.9429L26.2782 101.105L27.4495 101.074L36.2743 100.835L37.7619 100.794L37.1627 99.4327L31.4994 86.5654C31.0851 85.6243 31.0432 84.561 31.3832 83.5904L32.8638 79.3653L33.4744 77.6218L31.6799 78.0641Z" fill="#ECEDF9" stroke="white" stroke-width="2"/>
<path d="M12.8579 63.1585L9.58683 65.6809C6.08692 68.3804 5.43782 73.4061 8.13684 76.906C10.8364 80.4059 15.8621 81.055 19.3619 78.3559L22.633 75.8336L23.4249 75.2228L22.8141 74.4308L14.2607 63.3396L13.6498 62.5477L12.8579 63.1585Z" fill="#283A7D" stroke="white" stroke-width="2"/>
<path d="M30.0914 57.9276C29.0579 56.5275 27.4764 55.2972 25.4355 55.8L19.3321 57.3039C13.8097 58.665 10.4354 64.2453 11.796 69.7676L13.5136 76.7351C14.8742 82.2574 20.4541 85.6314 25.9764 84.2708L31.6944 82.8618C33.3621 82.4509 34.547 80.9438 35.1725 79.1944C35.8113 77.4078 35.954 75.1686 35.3958 72.9019L35.388 72.8722L35.3797 72.8435L32.2197 62.6955C31.8403 61.1769 31.1292 59.3336 30.0914 57.9276Z" fill="#00CAC0" stroke="white" stroke-width="2"/>
<path d="M35.3952 67.6573C34.5177 64.0965 33.0585 60.9864 31.3665 58.8398C29.7363 56.7716 27.6086 55.274 25.4254 55.8121C23.2423 56.3502 22.054 58.6649 21.5716 61.2537C21.0709 63.9408 21.2239 67.3728 22.1015 70.9336C22.979 74.4941 24.4381 77.6036 26.13 79.7502C27.7601 81.8183 29.8879 83.3158 32.0711 82.7779C34.2543 82.2398 35.4425 79.9251 35.9249 77.3363C36.4256 74.6493 36.2727 71.218 35.3952 67.6573Z" fill="#66DFD9" stroke="white" stroke-width="2"/>
<path d="M63.7181 59.9009C62.5496 55.1584 57.7578 52.261 53.015 53.4291C48.4208 54.5611 45.5583 59.094 46.4463 63.6878L46.5433 64.1321C47.7122 68.8745 52.504 71.772 57.2463 70.6039C61.9886 69.4355 64.8863 64.6432 63.7181 59.9009Z" fill="#283A7D" stroke="white" stroke-width="2"/>
<path d="M52.8527 38.7127C48.9794 44.9199 42.3202 50.0087 36.5424 53.5689C33.6669 55.3409 31.037 56.7179 29.1269 57.6514C28.1723 58.1179 27.3983 58.4736 26.8651 58.7114C26.5988 58.8301 26.3924 58.919 26.2537 58.9783C26.1845 59.0079 26.132 59.0305 26.0974 59.045L26.0477 59.0657L25.6014 59.2496L25.4678 59.7131C23.9591 64.9357 25.1519 69.7142 26.6795 73.1388C27.445 74.8549 28.3023 76.2496 28.9691 77.217C29.303 77.7013 29.5907 78.0804 29.7971 78.3411C29.9002 78.4714 29.9831 78.5726 30.0417 78.6424C30.0709 78.6772 30.0942 78.7044 30.1107 78.7235L30.1365 78.7532C30.1372 78.754 30.1383 78.7546 30.1388 78.7552L30.1394 78.7565L30.889 78.0944L30.1403 78.7568L30.5071 79.1717L31.0531 79.0817C39.4966 77.6832 47.6996 78.8998 53.8175 80.4837C56.8715 81.2743 59.3932 82.1535 61.1478 82.833C62.0246 83.1725 62.7089 83.4622 63.1717 83.6656C63.4032 83.7673 63.5798 83.8475 63.6966 83.9016C63.7548 83.9285 63.7985 83.9491 63.8268 83.9625C63.8408 83.9692 63.8512 83.9742 63.8576 83.9773L63.8658 83.9807L66.9988 85.5029L65.1498 82.5511C56.8234 69.2585 54.2277 58.455 53.6921 51.0211C53.424 47.301 53.6714 44.415 53.9804 42.4734C54.1349 41.5027 54.3044 40.7675 54.4333 40.2817C54.4977 40.0389 54.5521 39.8581 54.5889 39.7417C54.6073 39.6835 54.6215 39.6411 54.6304 39.6151C54.6348 39.6021 54.6377 39.593 54.6394 39.5882L54.6405 39.5855C54.6398 39.5853 54.6377 39.5851 54.632 39.583L52.8527 38.7127Z" fill="#ECEDF9" stroke="white" stroke-width="2"/>
<mask id="mask1_942_1707" style="mask-type:luminance" maskUnits="userSpaceOnUse" x="23" y="38" width="47" height="50">
<path d="M52.8527 38.7124C48.9794 44.9195 42.3202 50.0084 36.5424 53.5686C33.6669 55.3405 31.037 56.7176 29.1269 57.651C28.1723 58.1176 27.3983 58.4732 26.8651 58.711C26.5988 58.8298 26.3924 58.9186 26.2537 58.978C26.1845 59.0076 26.132 59.0301 26.0974 59.0446L26.0477 59.0654L25.6014 59.2493L25.4678 59.7128C23.9591 64.9353 25.1519 69.7139 26.6795 73.1385C27.445 74.8545 28.3023 76.2493 28.9691 77.2166C29.303 77.7009 29.5907 78.0801 29.7971 78.3408C29.9002 78.4711 29.9831 78.5722 30.0417 78.642C30.0709 78.6769 30.0942 78.704 30.1107 78.7232L30.1365 78.7528C30.1372 78.7537 30.1383 78.7543 30.1388 78.7549L30.1394 78.7561L30.889 78.0941L30.1403 78.7565L30.5071 79.1714L31.0531 79.0814C39.4966 77.6828 47.6996 78.8994 53.8175 80.4833C56.8715 81.274 59.3932 82.1531 61.1478 82.8326C62.0246 83.1721 62.7089 83.4618 63.1717 83.6652C63.4032 83.767 63.5798 83.8471 63.6966 83.9012C63.7548 83.9282 63.7985 83.9488 63.8268 83.9622C63.8408 83.9689 63.8512 83.9739 63.8576 83.977L63.8658 83.9803L66.9988 85.5026L65.1498 82.5508C56.8234 69.2581 54.2277 58.4547 53.6921 51.0208C53.424 47.3007 53.6714 44.4147 53.9804 42.4731C54.1349 41.5024 54.3044 40.7671 54.4333 40.2813C54.4977 40.0386 54.5521 39.8578 54.5889 39.7413C54.6073 39.6831 54.6215 39.6407 54.6304 39.6148C54.6348 39.6018 54.6377 39.5927 54.6394 39.5878L54.6405 39.5851C54.6398 39.585 54.6377 39.5847 54.632 39.5827L52.8527 38.7124Z" fill="white" stroke="white" stroke-width="2"/>
</mask>
<g mask="url(#mask1_942_1707)">
<path d="M61.9046 49.6803C61.9039 49.6813 61.9027 49.6841 61.9008 49.6871C61.8964 49.6938 61.8889 49.7048 61.8787 49.7203C61.8577 49.752 61.8245 49.8022 61.7784 49.8691C61.6861 50.003 61.5423 50.2049 61.3449 50.4658C60.9501 50.9878 60.3397 51.7461 59.4906 52.6682C57.7925 54.5122 55.1405 57.0127 51.3515 59.5954C43.78 64.7563 31.6375 70.2673 13.4317 71.5026L10.0534 71.7316L13.0144 73.3743L40.691 88.7274L40.8312 88.8052L40.9879 88.8348L70.8588 94.5394L72.3058 94.8158L72.0287 93.3692L63.7329 50.0258L63.2562 47.5372L61.9046 49.6803Z" fill="white" stroke="white" stroke-width="2"/>
</g>
<path d="M70.8381 36.623C67.2138 32.0204 62.8702 29.2644 58.6594 30.3013C54.416 31.3467 51.7381 35.8108 50.7027 42.1136C49.718 48.1091 50.2164 55.5392 52.0647 63.0415C53.6477 69.4656 56.0078 75.1378 58.7583 79.5366C61.4928 83.9097 64.6815 87.1316 67.9723 88.4856C69.6681 89.1832 71.4114 89.3919 73.1154 88.972C77.3588 87.9267 80.0369 83.462 81.0721 77.1597C82.0568 71.1642 81.5587 63.7338 79.7104 56.2309C77.726 48.1774 74.5164 41.2945 70.8381 36.623ZM62.1195 35.0226C64.2193 35.8864 66.7366 38.263 69.1435 42.1128C71.381 45.6917 73.4609 50.4462 74.9785 56.167L75.2746 57.3237C76.996 64.3096 77.4392 71.093 76.5646 76.4194C76.1626 78.8659 75.5034 80.8112 74.6846 82.193C73.8631 83.5792 72.938 84.3099 72.023 84.5353C71.1229 84.757 69.9679 84.5442 68.5954 83.706C67.2286 82.8711 65.738 81.4678 64.2458 79.5068C61.2649 75.5894 58.3826 69.5847 56.5015 61.9491L56.1935 60.6418C54.7296 54.1209 54.3915 47.8469 55.2115 42.8534C55.6134 40.4071 56.2726 38.4615 57.0915 37.0798C57.9129 35.6939 58.8382 34.9629 59.7531 34.7375C60.4105 34.5758 61.2008 34.6447 62.1195 35.0226Z" fill="#00CAC0" stroke="white" stroke-width="2"/>
<path d="M101.315 73.8687C101.315 73.8687 92.2096 68.9319 85.8798 62.4957C85.8798 62.4957 95.4144 67.6081 101.315 73.8687Z" fill="#ECEDF9"/>
<path d="M79.5124 17.683C79.5124 17.683 75.4295 25.06 73.9138 33.9584C73.9138 33.9584 78.249 26.1926 79.5124 17.683Z" fill="#ECEDF9"/>
<path d="M32.4836 82.5271L33.9634 78.3022L22.0452 81.2386C22.0452 81.2386 30.4576 91.8077 29.4668 99.3407L33.9839 98.7405L36.2461 99.8352L38.1662 98.8181L32.6276 86.2359C32.1111 85.0626 32.0597 83.737 32.4836 82.5271Z" fill="#D9DBE8"/>
<path d="M54.2756 62.5071C50.5848 47.531 52.7883 34.1099 59.1974 32.5304C65.6065 30.9509 73.7941 41.8111 77.485 56.7872C81.1758 71.7634 78.9723 85.1844 72.5632 86.7639C66.1541 88.3434 57.9665 77.4833 54.2756 62.5071Z" fill="#ECEDF9"/>
<mask id="mask2_942_1707" style="mask-type:luminance" maskUnits="userSpaceOnUse" x="52" y="32" width="28" height="55">
<path d="M54.2747 62.5069C50.5838 47.5307 52.7874 34.1097 59.1964 32.5302C65.6055 30.9507 73.7931 41.8108 77.484 56.787C81.1749 71.7631 78.9713 85.1841 72.5622 86.7637C66.1532 88.3432 57.9655 77.483 54.2747 62.5069Z" fill="white"/>
</mask>
<g mask="url(#mask2_942_1707)">
<path d="M81.7395 50.7769C81.7395 50.7769 59.2004 45.3896 53.6849 72.4408C53.6849 72.4408 33.3549 37.5696 48.1358 27.4004C62.917 17.2319 81.7395 50.7769 81.7395 50.7769Z" fill="#D9DBE8"/>
</g>
<path d="M20.0007 81.9716C20.0007 81.9716 28.413 92.5407 27.4223 100.074L36.2473 99.8354L30.5838 86.9686C30.0672 85.7953 30.0159 84.4697 30.4397 83.2598L31.9196 79.0349L20.0007 81.9716Z" fill="#ECEDF9"/>
<path d="M22.0221 75.0417L18.751 77.5643C15.6886 79.926 11.2909 79.358 8.92869 76.2953C6.56693 73.2329 7.13492 68.8353 10.1976 66.473L13.4687 63.9505L22.0221 75.0417Z" fill="#283A7D"/>
<path d="M31.4555 81.8906L25.7367 83.2997C20.7507 84.5282 15.7127 81.482 14.4842 76.496L12.7672 69.5281C11.5387 64.542 14.5849 59.504 19.5711 58.2751L25.6749 56.7713C28.575 56.0567 30.5457 60.0826 31.2602 62.9827L34.4247 73.1405C35.4529 77.3154 33.8702 81.2956 31.4555 81.8906Z" fill="#00CAC0"/>
<path d="M23.0727 70.6938C21.3697 63.7837 22.5303 57.5556 25.6649 56.7831C28.7995 56.0106 32.7212 60.9861 34.4242 67.8962C36.1272 74.8064 34.9666 81.0344 31.832 81.8069C28.6974 82.5794 24.7757 77.6039 23.0727 70.6938Z" fill="#66DFD9"/>
<path d="M62.7473 60.1398C63.7836 64.3459 61.2137 68.5964 57.0076 69.6327C52.8014 70.669 48.5515 68.0994 47.5146 63.893C46.4783 59.6869 49.0482 55.4364 53.2543 54.4001C57.461 53.364 61.711 55.9336 62.7473 60.1398Z" fill="#283A7D"/>
<path d="M26.4285 59.9903C26.4285 59.9903 45.7078 52.0527 53.7015 39.2425C53.7015 39.2425 47.483 56.2301 64.3022 83.0814C64.3022 83.0814 48.1492 75.2358 30.8895 78.0947C30.8895 78.0947 23.5867 69.8275 26.4285 59.9903Z" fill="#ECEDF9"/>
<mask id="mask3_942_1707" style="mask-type:luminance" maskUnits="userSpaceOnUse" x="25" y="39" width="40" height="45">
<path d="M26.4285 59.99C26.4285 59.99 45.7078 52.0523 53.7015 39.2421C53.7015 39.2421 47.483 56.2298 64.3022 83.0811C64.3022 83.0811 48.1492 75.2355 30.8895 78.0943C30.8895 78.0943 23.5867 69.8271 26.4285 59.99Z" fill="white"/>
</mask>
<g mask="url(#mask3_942_1707)">
<path d="M62.7506 50.2141C62.7506 50.2141 50.2712 70.0053 13.4995 72.5003L41.1758 87.8532L71.0463 93.5573L62.7506 50.2141Z" fill="#D9DBE8"/>
</g>
<path d="M68.353 87.5612C69.8875 88.1925 71.4127 88.3616 72.8767 88.0008C76.5074 87.1064 79.0672 83.1984 80.0857 76.9976C81.0431 71.1683 80.5648 63.8783 78.7398 56.47C74.8206 40.5648 66.1055 29.4978 58.8987 31.2724C55.2679 32.1668 52.7083 36.0743 51.6897 42.2756C50.7322 48.1049 51.2106 55.3949 53.0357 62.8027C56.1593 75.4789 62.3287 85.0829 68.353 87.5612ZM62.5001 34.0981C67.2678 36.0595 73.1286 44.4332 76.2455 57.0845C77.9898 64.1631 78.4535 71.0871 77.5513 76.5813C76.7219 81.6298 74.7939 84.8829 72.2621 85.5065C67.2607 86.7385 59.3429 77.6634 55.5305 62.1884C53.7863 55.1098 53.3225 48.1858 54.2248 42.6916C55.0539 37.6436 56.982 34.3905 59.5137 33.767C60.4256 33.5424 61.4361 33.6604 62.5001 34.0981Z" fill="#00CAC0"/>
</svg>
