<svg width="226" height="247" viewBox="0 0 226 247" fill="none" xmlns="http://www.w3.org/2000/svg">
<path d="M72.0713 181.457L47.3096 199.582L44.1621 201.886L47.5693 203.783C47.5697 203.783 47.5704 203.784 47.5713 203.784C47.5737 203.785 47.5781 203.788 47.584 203.791C47.5958 203.798 47.6151 203.809 47.6406 203.823C47.6918 203.852 47.7698 203.897 47.873 203.956C48.0802 204.075 48.3892 204.254 48.7861 204.49C49.5802 204.962 50.7267 205.661 52.1201 206.557C54.9104 208.351 58.6752 210.928 62.582 214.061C66.4953 217.2 70.5064 220.861 73.8174 224.815C77.1426 228.787 79.6569 232.932 80.7461 237.034L81.583 240.186L84.4102 238.559L93.6328 233.249L99.1553 233.583L100.42 233.659L101.229 232.685L104.701 228.508L106.188 226.72L104.511 225.107L79.7383 201.286C77.8852 199.504 76.7786 197.084 76.6416 194.517L76.0449 183.341L75.7979 178.729L72.0713 181.457Z" fill="#D9DBE8" stroke="white" stroke-width="5"/>
<path d="M155.723 90.8607C144.184 75.0979 130.936 62.7305 118.755 55.5193C112.669 51.9163 106.74 49.5364 101.347 48.7345C95.9385 47.9304 90.8885 48.6955 86.8765 51.6325C82.8645 54.5696 80.6091 59.1523 79.7416 64.5506C78.8765 69.9341 79.3536 76.3049 80.9492 83.1955C84.1427 96.9862 91.9293 113.351 103.469 129.114C115.008 144.877 128.256 157.245 140.437 164.456C146.523 168.059 152.452 170.438 157.845 171.24C163.253 172.044 168.303 171.279 172.315 168.342C176.327 165.405 178.582 160.822 179.45 155.424C180.315 150.041 179.838 143.671 178.243 136.78C175.049 122.989 167.262 106.624 155.723 90.8607Z" fill="#ECEDF9" stroke="white" stroke-width="5"/>
<mask id="mask0_942_463" style="mask-type:luminance" maskUnits="userSpaceOnUse" x="76" y="45" width="107" height="130">
<path d="M155.723 90.8607C144.184 75.0979 130.936 62.7305 118.755 55.5193C112.669 51.9163 106.74 49.5364 101.347 48.7345C95.9385 47.9304 90.8885 48.6955 86.8765 51.6325C82.8645 54.5696 80.6091 59.1523 79.7416 64.5506C78.8765 69.9341 79.3536 76.3049 80.9492 83.1955C84.1427 96.9862 91.9293 113.351 103.469 129.114C115.008 144.877 128.256 157.245 140.437 164.456C146.523 168.059 152.452 170.438 157.845 171.24C163.253 172.044 168.303 171.279 172.315 168.342C176.327 165.405 178.582 160.822 179.45 155.424C180.315 150.041 179.838 143.671 178.243 136.78C175.049 122.989 167.262 106.624 155.723 90.8607Z" fill="white" stroke="white" stroke-width="5"/>
</mask>
<g mask="url(#mask0_942_463)">
<path d="M83.9258 37.4119C72.7905 37.0844 62.533 40.634 55.8086 50.9442C49.0962 61.237 49.691 73.016 53.9189 84.4715C58.1363 95.898 66.0735 107.341 74.6426 117.443C83.2344 127.572 92.5821 136.493 99.7676 142.872C103.364 146.064 106.427 148.628 108.594 150.395C109.677 151.279 110.538 151.965 111.13 152.431C111.425 152.664 111.654 152.843 111.81 152.964C111.887 153.024 111.948 153.07 111.988 153.101C112.009 153.117 112.024 153.129 112.035 153.138C112.04 153.142 112.045 153.145 112.048 153.147C112.049 153.148 112.05 153.15 112.051 153.15C112.052 153.151 112.053 153.151 113.571 151.165L112.053 153.151L117.259 157.131L116.026 150.695C109.699 117.645 120.482 99.3771 132.446 89.2684C138.508 84.1469 144.979 81.0344 149.952 79.203C152.434 78.2891 154.528 77.6997 155.99 77.3407C156.721 77.1613 157.292 77.0392 157.674 76.9637C157.865 76.926 158.008 76.8998 158.1 76.8836C158.145 76.8756 158.178 76.8703 158.197 76.867C158.207 76.8654 158.214 76.8646 158.217 76.8641V76.8631L163.86 75.9783L159.379 72.4334L157.828 74.3944C159.291 72.5447 159.373 72.4391 159.377 72.4324C159.376 72.4319 159.375 72.4306 159.374 72.4295C159.371 72.4272 159.367 72.4238 159.361 72.4198C159.351 72.4116 159.337 72.3996 159.317 72.3846C159.279 72.3542 159.222 72.3096 159.147 72.2518C158.999 72.1361 158.78 71.9669 158.495 71.7489C157.926 71.3128 157.092 70.6815 156.024 69.8934C153.889 68.3171 150.816 66.1113 147.054 63.5848C139.539 58.5383 129.227 52.1804 118.109 46.9979C107.033 41.8348 94.9437 37.7361 83.9258 37.4119Z" fill="#D9DBE8" stroke="white" stroke-width="5"/>
</g>
<path d="M68.041 185.096L43.2783 203.222L40.1309 205.525L43.5381 207.422C43.5375 207.423 43.5371 207.423 43.5371 207.423C43.5374 207.423 43.5388 207.424 43.54 207.425C43.5425 207.426 43.547 207.428 43.5527 207.432C43.5645 207.438 43.5832 207.449 43.6084 207.463C43.6595 207.492 43.7382 207.536 43.8418 207.596C44.0489 207.715 44.3572 207.894 44.7539 208.13C45.548 208.602 46.6944 209.301 48.0879 210.197C50.8783 211.992 54.6438 214.569 58.5508 217.702C62.4641 220.84 66.4751 224.501 69.7861 228.456C73.1113 232.428 75.6257 236.572 76.7148 240.674L77.4668 243.505L80.1445 242.318L100.321 233.373L103.723 231.865L101.04 229.286L75.708 204.925L75.3701 204.583C73.721 202.84 72.7398 200.562 72.6113 198.155L72.0146 186.979L71.7676 182.368L68.041 185.096Z" fill="#ECEDF9" stroke="white" stroke-width="5"/>
<path d="M10.3467 168.537L5.18359 177.481L4.93066 177.932C-0.236649 187.432 3.08846 199.374 12.5078 204.812C22.0779 210.336 34.3144 207.057 39.8389 197.488L45.002 188.545L46.252 186.38L44.0869 185.13L13.7617 167.622L11.5967 166.372L10.3467 168.537Z" fill="#283A7D" stroke="white" stroke-width="5"/>
<path d="M45.2168 140.051C41.4957 137.797 36.6689 136.458 32.4287 139.562L19.7471 148.844L19.2158 149.243C8.1988 157.746 5.91188 173.532 14.1787 184.827L24.7764 199.303C33.1744 210.776 49.2836 213.269 60.7568 204.871L72.6387 196.174C76.1035 193.638 77.41 189.027 77.1924 184.388C76.9701 179.65 75.1685 174.336 71.7217 169.626L71.6768 169.565L71.6289 169.506L54.6904 149.077C52.3683 145.921 48.9637 142.321 45.2168 140.051Z" fill="#00CAC0" stroke="white" stroke-width="5"/>
<path d="M66.7315 157.501C61.3159 150.103 54.9848 144.301 49.0313 140.947C43.2954 137.716 36.9517 136.279 32.416 139.599C27.8805 142.92 27.3347 149.401 28.6815 155.845C30.0795 162.533 33.6977 170.322 39.1133 177.719C44.5289 185.117 50.86 190.919 56.8135 194.273C62.5494 197.504 68.8928 198.943 73.4286 195.623C77.9645 192.302 78.5103 185.82 77.1633 179.376C75.7652 172.687 72.1471 164.899 66.7315 157.501Z" fill="#66DFD9" stroke="white" stroke-width="5"/>
<path d="M124.838 112.63C117.626 102.776 103.791 100.636 93.9365 107.847C84.2373 114.947 82.0114 128.465 88.8232 138.284L89.1553 138.749C96.3687 148.601 110.203 150.742 120.056 143.53C129.909 136.318 132.05 122.483 124.838 112.63Z" fill="#283A7D" stroke="white" stroke-width="5"/>
<path d="M79.5654 73.9786C76.5142 92.0135 65.9581 110.112 55.9863 123.839C51.0231 130.671 46.252 136.356 42.7236 140.331C40.9602 142.318 39.5085 143.875 38.502 144.932C37.9989 145.46 37.607 145.864 37.3428 146.133C37.2108 146.267 37.1101 146.368 37.0439 146.435C37.011 146.468 36.9865 146.492 36.9707 146.508C36.9629 146.516 36.9576 146.522 36.9541 146.525C36.9524 146.527 36.9508 146.529 36.9502 146.529L36.0928 147.378L36.2246 148.577C37.7039 162.087 45.0076 172 51.7969 178.465C55.199 181.704 58.507 184.114 60.9688 185.716C62.2012 186.518 63.2262 187.121 63.9512 187.527C64.3136 187.731 64.6019 187.885 64.8037 187.99C64.9046 188.043 64.9846 188.085 65.041 188.113C65.069 188.128 65.0919 188.138 65.1084 188.147C65.1165 188.151 65.1227 188.155 65.1279 188.157C65.1304 188.159 65.133 188.159 65.1348 188.16L65.1377 188.161C65.1387 188.162 65.1401 188.163 66.2432 185.919L65.1396 188.162L66.3818 188.774L67.5586 188.045C85.7499 176.781 105.874 171.793 121.525 169.636C129.338 168.559 136.003 168.192 140.706 168.094C143.057 168.045 144.915 168.064 146.179 168.094C146.811 168.109 147.294 168.127 147.615 168.141C147.776 168.148 147.896 168.153 147.975 168.157C148.014 168.159 148.043 168.161 148.061 168.162C148.069 168.163 148.076 168.163 148.079 168.163C148.08 168.163 148.081 168.164 148.082 168.164L156.774 168.702L149.69 163.635C117.797 140.822 101.521 118.314 93.2119 101.636C89.054 93.2899 86.8805 86.3836 85.748 81.6007C85.1817 79.2088 84.8759 77.3466 84.7119 76.1007C84.63 75.4781 84.5832 75.0094 84.5576 74.7052C84.5448 74.5531 84.5374 74.4416 84.5332 74.3732C84.5311 74.3391 84.5299 74.3156 84.5293 74.3028L84.5283 74.2941C84.5283 74.2944 84.5285 74.2946 84.501 74.296L79.5654 73.9786Z" fill="#ECEDF9" stroke="white" stroke-width="5"/>
<mask id="mask1_942_463" style="mask-type:luminance" maskUnits="userSpaceOnUse" x="33" y="73" width="133" height="118">
<path d="M79.5654 73.9786C76.5142 92.0135 65.9581 110.112 55.9863 123.839C51.0231 130.671 46.252 136.356 42.7236 140.331C40.9602 142.318 39.5085 143.875 38.502 144.932C37.9989 145.46 37.607 145.864 37.3428 146.133C37.2108 146.267 37.1101 146.368 37.0439 146.435C37.011 146.468 36.9865 146.492 36.9707 146.508C36.9629 146.516 36.9576 146.522 36.9541 146.525C36.9524 146.527 36.9508 146.529 36.9502 146.529L36.0928 147.378L36.2246 148.577C37.7039 162.087 45.0076 172 51.7969 178.465C55.199 181.704 58.507 184.114 60.9688 185.716C62.2012 186.518 63.2262 187.121 63.9512 187.527C64.3136 187.731 64.6019 187.885 64.8037 187.99C64.9046 188.043 64.9846 188.085 65.041 188.113C65.069 188.128 65.0919 188.138 65.1084 188.147C65.1165 188.151 65.1227 188.155 65.1279 188.157C65.1304 188.159 65.133 188.159 65.1348 188.16L65.1377 188.161C65.1387 188.162 65.1401 188.163 66.2432 185.919L65.1396 188.162L66.3818 188.774L67.5586 188.045C85.7499 176.781 105.874 171.793 121.525 169.636C129.338 168.559 136.003 168.192 140.706 168.094C143.057 168.045 144.915 168.064 146.179 168.094C146.811 168.109 147.294 168.127 147.615 168.141C147.776 168.148 147.896 168.153 147.975 168.157C148.014 168.159 148.043 168.161 148.061 168.162C148.069 168.163 148.076 168.163 148.079 168.163C148.08 168.163 148.081 168.164 148.082 168.164L156.774 168.702L149.69 163.635C117.797 140.822 101.521 118.314 93.2119 101.636C89.054 93.2899 86.8805 86.3836 85.748 81.6007C85.1817 79.2088 84.8759 77.3466 84.7119 76.1007C84.63 75.4781 84.5832 75.0094 84.5576 74.7052C84.5448 74.5531 84.5374 74.4416 84.5332 74.3732C84.5311 74.3391 84.5299 74.3156 84.5293 74.3028L84.5283 74.2941C84.5283 74.2944 84.5285 74.2946 84.501 74.296L79.5654 73.9786Z" fill="white" stroke="white" stroke-width="5"/>
</mask>
<g mask="url(#mask1_942_463)">
<path d="M110.925 90.7268L110.926 90.7277C110.925 90.7312 110.923 90.7368 110.922 90.7443C110.918 90.7639 110.912 90.7974 110.903 90.8439C110.885 90.9374 110.855 91.0848 110.812 91.2834C110.725 91.6808 110.586 92.2845 110.378 93.0754C109.961 94.6577 109.271 96.9907 108.185 99.9299C106.012 105.808 102.259 114.111 95.9551 123.687C83.3587 142.82 60.5283 167.111 19.6113 187.283L12.0166 191.028L20.4268 192.009L99.0166 201.181L99.415 201.227L99.8076 201.147L174.294 185.924L177.9 185.187L175.885 182.106L115.48 89.7863L112.012 84.4855L110.925 90.7268Z" fill="white" stroke="white" stroke-width="5"/>
</g>
<path d="M119.158 52.0395C106.401 44.8455 93.7393 42.606 84.9902 49.0083L84.582 49.3149C76.1142 55.8633 74.2842 68.5713 77.8291 83.8852C81.2548 98.6835 89.4744 115.388 100.884 130.976C110.654 144.323 121.506 155.191 132.049 162.745C142.531 170.255 152.967 174.672 161.863 174.672C166.305 174.672 170.411 173.568 173.883 171.142L174.217 170.904C183.033 164.451 184.978 151.582 181.377 136.027C177.951 121.229 169.733 104.523 158.323 88.934C146.075 72.2014 132.106 59.3412 119.158 52.0395ZM97.4805 56.6333C103.157 56.6333 111.237 59.7317 120.464 66.3432C129.612 72.899 139.618 82.7187 149.105 95.6801H149.106C159.731 110.194 167.207 125.455 170.251 138.602C171.649 144.641 171.975 149.766 171.396 153.74C170.816 157.726 169.372 160.296 167.471 161.687C165.6 163.056 162.727 163.661 158.756 163.028C154.802 162.398 150.023 160.572 144.708 157.457C134.09 151.236 121.714 140.095 110.103 124.23H110.102C99.4771 109.716 92.0009 94.4546 88.957 81.3081L88.708 80.187C87.5223 74.6338 87.2687 69.8966 87.8115 66.1713C88.3924 62.1856 89.8364 59.6164 91.7373 58.2251C93.1036 57.2253 94.9963 56.6333 97.4805 56.6333Z" fill="#00CAC0" stroke="white" stroke-width="5"/>
<path d="M225.048 109.164C225.048 109.164 199.302 106.41 178.545 97.5499C178.545 97.5499 205.452 100.301 225.048 109.164Z" fill="#ECEDF9"/>
<path d="M121.199 0C121.199 0 118.776 20.9391 123.735 42.9539C123.735 42.9539 126.372 20.8759 121.199 0Z" fill="#ECEDF9"/>
<path d="M74.1451 194.65L73.5481 183.475L48.7861 201.599C48.7861 201.599 78.288 218.034 83.1624 236.392L93.0349 230.708L99.3064 231.088L102.778 226.91L78.0057 203.088C75.6955 200.866 74.3159 197.85 74.1451 194.65Z" fill="#D9DBE8"/>
<path d="M105.486 127.637C82.7085 96.5228 75.0379 63.3976 88.3534 53.6498C101.669 43.9021 130.928 61.2232 153.706 92.3375C176.483 123.452 184.154 156.577 170.838 166.325C157.523 176.073 128.264 158.752 105.486 127.637Z" fill="#ECEDF9"/>
<mask id="mask2_942_463" style="mask-type:luminance" maskUnits="userSpaceOnUse" x="81" y="50" width="97" height="120">
<path d="M105.486 127.637C82.7085 96.5229 75.0379 63.3976 88.3534 53.6498C101.669 43.9021 130.928 61.2232 153.706 92.3375C176.483 123.452 184.154 156.577 170.838 166.325C157.523 176.073 128.264 158.752 105.486 127.637Z" fill="white"/>
</mask>
<g mask="url(#mask2_942_463)">
<path d="M157.828 74.3943C157.828 74.3943 100.594 83.3766 113.571 151.165C113.571 151.165 33.4012 89.8794 57.9023 52.3095C82.4047 14.741 157.828 74.3943 157.828 74.3943Z" fill="#D9DBE8"/>
</g>
<path d="M44.7547 205.239C44.7547 205.239 74.2566 221.674 79.131 240.032L99.3076 231.088L73.9756 206.726C71.6654 204.505 70.2858 201.489 70.115 198.289L69.518 187.113L44.7547 205.239Z" fill="#ECEDF9"/>
<path d="M42.8369 187.295L37.6734 196.238C32.8394 204.611 22.1318 207.481 13.7573 202.647C5.38409 197.813 2.51455 187.105 7.34861 178.731L12.5121 169.787L42.8369 187.295Z" fill="#283A7D"/>
<path d="M71.162 194.157L59.2805 202.854C48.9213 210.436 34.3761 208.185 26.7935 197.826L16.1963 183.349C8.61371 172.99 10.8646 158.445 21.2239 150.861L33.9054 141.579C39.9309 137.168 48.3162 144.602 52.7267 150.627L69.7044 171.102C76.0525 179.777 76.1789 190.484 71.162 194.157Z" fill="#00CAC0"/>
<path d="M41.1308 176.243C30.621 161.887 27.3805 146.383 33.893 141.616C40.4055 136.848 54.2047 144.622 64.7145 158.978C75.2243 173.335 78.4647 188.838 71.9523 193.605C65.4398 198.373 51.6406 190.599 41.1308 176.243Z" fill="#66DFD9"/>
<path d="M122.82 114.106C129.217 122.845 127.318 135.117 118.579 141.513C109.84 147.91 97.5701 146.011 91.1722 137.272C84.7756 128.533 86.6743 116.262 95.4132 109.865C104.154 103.469 116.424 105.367 122.82 114.106Z" fill="#283A7D"/>
<path d="M38.7096 148.305C38.7096 148.305 75.7335 111.616 82.0306 74.3956C82.0306 74.3956 83.8109 119.586 148.236 165.669C148.236 165.669 103.428 162.893 66.2429 185.919C66.2429 185.919 41.4957 173.751 38.7096 148.305Z" fill="#ECEDF9"/>
<mask id="mask3_942_463" style="mask-type:luminance" maskUnits="userSpaceOnUse" x="38" y="74" width="111" height="112">
<path d="M38.7096 148.305C38.7096 148.305 75.7335 111.616 82.0306 74.3956C82.0306 74.3956 83.8109 119.586 148.236 165.669C148.236 165.669 103.428 162.893 66.2429 185.919C66.2429 185.919 41.4957 173.751 38.7096 148.305Z" fill="white"/>
</mask>
<g mask="url(#mask3_942_463)">
<path d="M113.388 91.1555C113.388 91.1555 103.36 148.782 20.7167 189.526L99.3068 198.697L173.793 183.475L113.388 91.1555Z" fill="#D9DBE8"/>
</g>
<path d="M161.863 172.173C166.011 172.173 169.698 171.113 172.74 168.886C180.284 163.365 182.485 151.895 178.942 136.59C175.611 122.202 167.571 105.803 156.306 90.4105C132.117 57.3655 101.441 40.0677 86.4666 51.0254C78.9231 56.5466 76.7218 68.0152 80.265 83.3215C83.5958 97.7094 91.6355 114.109 102.901 129.5C122.179 155.836 145.578 172.173 161.863 172.173ZM97.4807 54.1329C110.369 54.1329 131.884 67.9184 151.123 94.2038C161.889 108.91 169.547 124.478 172.686 138.038C175.571 150.499 174.207 159.854 168.947 163.704C158.555 171.309 131.618 157.859 108.085 125.707C97.3194 111 89.6615 95.4328 86.5217 81.8719C83.6374 69.4123 85.0009 60.0575 90.2612 56.2077C92.1559 54.8214 94.6045 54.1329 97.4807 54.1329Z" fill="#00CAC0"/>
</svg>
