<svg width="11" height="11" viewBox="0 0 11 11" fill="none" xmlns="http://www.w3.org/2000/svg">
<g clip-path="url(#clip0_528_445)">
<mask id="mask0_528_445" style="mask-type:luminance" maskUnits="userSpaceOnUse" x="0" y="0" width="11" height="11">
<path d="M10.08 0H0V10.08H10.08V0Z" fill="white"/>
</mask>
<g mask="url(#mask0_528_445)">
<path d="M4.64084 6.27884L3.86384 7.05584C3.70004 7.21964 3.43964 7.21964 3.27164 7.06004C3.22544 7.01384 3.17924 6.97184 3.13304 6.92564C2.70044 6.48884 2.30984 6.03104 1.96124 5.55224C1.61684 5.07344 1.33964 4.59464 1.13804 4.12004C0.940644 3.64124 0.839844 3.18344 0.839844 2.74664C0.839844 2.46104 0.890244 2.18804 0.991044 1.93604C1.09184 1.67984 1.25144 1.44464 1.47404 1.23464C1.74284 0.970044 2.03684 0.839844 2.34764 0.839844C2.46524 0.839844 2.58284 0.865044 2.68784 0.915444C2.79704 0.965844 2.89364 1.04144 2.96924 1.15064L3.94364 2.52404C4.01924 2.62904 4.07384 2.72564 4.11164 2.81804C4.14944 2.90624 4.17044 2.99444 4.17044 3.07424C4.17044 3.17504 4.14104 3.27584 4.08224 3.37244C4.02764 3.46904 3.94784 3.56984 3.84704 3.67064L3.52784 4.00244C3.48164 4.04864 3.46064 4.10324 3.46064 4.17044C3.46064 4.20404 3.46484 4.23344 3.47324 4.26704C3.48584 4.30064 3.49844 4.32584 3.50684 4.35104C3.58244 4.48964 3.71264 4.67024 3.89744 4.88864C4.08644 5.10704 4.28804 5.32964 4.50644 5.55224C4.54844 5.59424 4.59464 5.63624 4.63664 5.67824C4.80464 5.84204 4.80884 6.11084 4.64084 6.27884Z" fill="white"/>
<path d="M9.22714 7.69853C9.22714 7.81613 9.20614 7.93793 9.16414 8.05553C9.15154 8.08913 9.13894 8.12273 9.12214 8.15633C9.05074 8.30753 8.95834 8.45033 8.83654 8.58473C8.63074 8.81153 8.40394 8.97533 8.14774 9.08033C8.14354 9.08033 8.13934 9.08453 8.13514 9.08453C7.88734 9.18533 7.61854 9.23993 7.32874 9.23993C6.90034 9.23993 6.44254 9.13913 5.95954 8.93333C5.47654 8.72753 4.99354 8.45033 4.51474 8.10173C4.35094 7.97993 4.18714 7.85813 4.03174 7.72793L5.40514 6.35453C5.52274 6.44273 5.62774 6.50993 5.71594 6.55613C5.73694 6.56453 5.76214 6.57713 5.79154 6.58973C5.82514 6.60233 5.85874 6.60653 5.89654 6.60653C5.96794 6.60653 6.02254 6.58133 6.06874 6.53513L6.38794 6.22013C6.49294 6.11513 6.59374 6.03533 6.69034 5.98493C6.78694 5.92613 6.88354 5.89673 6.98854 5.89673C7.06834 5.89673 7.15234 5.91353 7.24474 5.95133C7.33714 5.98913 7.43374 6.04373 7.53874 6.11513L8.92894 7.10213C9.03814 7.17773 9.11374 7.26593 9.15994 7.37093C9.20194 7.47593 9.22714 7.58093 9.22714 7.69853Z" fill="white"/>
</g>
</g>
<defs>
<clipPath id="clip0_528_445">
<rect width="10.08" height="10.08" fill="white"/>
</clipPath>
</defs>
</svg>
