<svg width="11" height="11" viewBox="0 0 11 11" fill="none" xmlns="http://www.w3.org/2000/svg">
<g clip-path="url(#clip0_528_457)">
<mask id="mask0_528_457" style="mask-type:luminance" maskUnits="userSpaceOnUse" x="0" y="0" width="11" height="11">
<path d="M10.08 0H0V10.08H10.08V0Z" fill="white"/>
</mask>
<g mask="url(#mask0_528_457)">
<path d="M9.2399 8.92505H0.839902C0.667702 8.92505 0.524902 9.06785 0.524902 9.24005C0.524902 9.41225 0.667702 9.55505 0.839902 9.55505H9.2399C9.4121 9.55505 9.5549 9.41225 9.5549 9.24005C9.5549 9.06785 9.4121 8.92505 9.2399 8.92505Z" fill="white"/>
<path d="M7.13977 0.839844H2.93977C1.67977 0.839844 1.25977 1.59164 1.25977 2.51984V9.23984H8.81977V2.51984C8.81977 1.59164 8.39977 0.839844 7.13977 0.839844ZM4.19977 7.24484H2.93977C2.76757 7.24484 2.62477 7.10204 2.62477 6.92984C2.62477 6.75764 2.76757 6.61484 2.93977 6.61484H4.19977C4.37197 6.61484 4.51477 6.75764 4.51477 6.92984C4.51477 7.10204 4.37197 7.24484 4.19977 7.24484ZM4.19977 5.35484H2.93977C2.76757 5.35484 2.62477 5.21204 2.62477 5.03984C2.62477 4.86764 2.76757 4.72484 2.93977 4.72484H4.19977C4.37197 4.72484 4.51477 4.86764 4.51477 5.03984C4.51477 5.21204 4.37197 5.35484 4.19977 5.35484ZM4.19977 3.46484H2.93977C2.76757 3.46484 2.62477 3.32204 2.62477 3.14984C2.62477 2.97764 2.76757 2.83484 2.93977 2.83484H4.19977C4.37197 2.83484 4.51477 2.97764 4.51477 3.14984C4.51477 3.32204 4.37197 3.46484 4.19977 3.46484ZM7.13977 7.24484H5.87977C5.70757 7.24484 5.56477 7.10204 5.56477 6.92984C5.56477 6.75764 5.70757 6.61484 5.87977 6.61484H7.13977C7.31197 6.61484 7.45477 6.75764 7.45477 6.92984C7.45477 7.10204 7.31197 7.24484 7.13977 7.24484ZM7.13977 5.35484H5.87977C5.70757 5.35484 5.56477 5.21204 5.56477 5.03984C5.56477 4.86764 5.70757 4.72484 5.87977 4.72484H7.13977C7.31197 4.72484 7.45477 4.86764 7.45477 5.03984C7.45477 5.21204 7.31197 5.35484 7.13977 5.35484ZM7.13977 3.46484H5.87977C5.70757 3.46484 5.56477 3.32204 5.56477 3.14984C5.56477 2.97764 5.70757 2.83484 5.87977 2.83484H7.13977C7.31197 2.83484 7.45477 2.97764 7.45477 3.14984C7.45477 3.32204 7.31197 3.46484 7.13977 3.46484Z" fill="white"/>
</g>
</g>
<defs>
<clipPath id="clip0_528_457">
<rect width="10.08" height="10.08" fill="white"/>
</clipPath>
</defs>
</svg>
